<svg width="27" height="25" viewBox="0 0 27 25" fill="none" xmlns="http://www.w3.org/2000/svg">
<path d="M16.9277 8.39479C16.9279 8.42223 16.9281 8.44967 16.9271 8.47679C16.8512 8.52061 16.7753 8.56442 16.6994 8.60823C15.0792 9.54364 13.459 10.4791 11.8389 11.4145C9.5099 12.7591 7.17795 14.1003 4.85253 15.4511C3.74262 16.096 3.61463 17.5455 4.58499 18.321C5.16357 18.783 5.91224 18.815 6.62963 18.4008C10.5667 16.1288 14.5021 13.8557 18.4387 11.5829C18.5123 11.5404 18.5858 11.498 18.7117 11.4252C18.6768 11.5617 18.6607 11.6313 18.6413 11.7006C18.3057 12.9026 17.9664 14.1036 17.6346 15.3065C17.465 15.9198 17.6042 16.468 18.0259 16.9256C18.4817 17.4207 19.0705 17.5859 19.7306 17.4211C20.3902 17.2556 20.8314 16.8274 21.022 16.1765C21.2845 15.278 21.5299 14.375 21.7821 13.4732C22.2871 11.6703 22.7986 9.8698 23.2938 8.06442C23.5654 7.07494 23.1843 6.42755 22.1966 6.1549C21.7885 6.04251 21.377 5.94229 20.9669 5.83721C18.67 5.24995 16.374 4.66423 14.0781 4.07531C13.4729 3.91958 12.9142 4.034 12.4387 4.43712C11.9049 4.88921 11.6924 5.48232 11.8463 6.15369C12.0009 6.82978 12.4378 7.26844 13.1258 7.44473C14.0395 7.6795 14.9532 7.91427 15.8679 8.1454C16.2196 8.23421 16.5743 8.31206 16.9277 8.39479Z" fill="url(#paint0_linear_1_372)"/>
<path d="M16.9277 8.39504C16.5743 8.31232 16.2196 8.23446 15.8679 8.14565C14.9532 7.91453 14.0395 7.67975 13.1258 7.44498C12.4378 7.26869 12.0018 6.82958 11.8464 6.15394C11.6924 5.48258 11.9041 4.88991 12.4387 4.43737C12.9147 4.03502 13.4726 3.92105 14.0782 4.07556C16.3735 4.66372 18.67 5.25021 20.9665 5.8367C21.3766 5.94178 21.7881 6.042 22.1962 6.15438C23.1839 6.42704 23.565 7.07443 23.2934 8.06391C22.7982 9.86929 22.2867 11.6698 21.7817 13.4727C21.529 14.3737 21.2837 15.2767 21.0216 16.176C20.8322 16.8272 20.3898 17.2551 19.7302 17.4206C19.0705 17.5861 18.4821 17.4197 18.0255 16.9251C17.6038 16.4675 17.4646 15.9193 17.6341 15.306C17.966 14.1031 18.3053 12.9021 18.6409 11.7001C18.6603 11.6308 18.6764 11.5612 18.7113 11.4247C18.5854 11.4974 18.5118 11.5399 18.4383 11.5824C14.5017 13.8552 10.5658 16.1275 6.62923 18.4003C5.91184 18.8145 5.16317 18.7824 4.58459 18.3205C3.61423 17.545 3.743 16.095 4.85212 15.4506C7.17755 14.0998 9.5095 12.7586 11.8385 11.414C13.4586 10.4785 15.0788 9.54313 16.699 8.60772C16.7749 8.56391 16.8508 8.5201 16.9267 8.47628C16.9265 8.44884 16.9263 8.4214 16.9273 8.39428L16.9277 8.39504Z" fill="url(#paint1_linear_1_372)"/>
<defs>
<linearGradient id="paint0_linear_1_372" x1="23.2159" y1="6.83826" x2="4.16293" y2="17.8385" gradientUnits="userSpaceOnUse">
<stop stop-color="#F9423B"/>
<stop offset="1" stop-color="#FF8A3D"/>
</linearGradient>
<linearGradient id="paint1_linear_1_372" x1="23.2159" y1="6.83837" x2="4.16296" y2="17.8386" gradientUnits="userSpaceOnUse">
<stop stop-color="#F9423B"/>
<stop offset="1" stop-color="#FF8A3D"/>
</linearGradient>
</defs>
</svg>
