<svg width="30" height="31" viewBox="0 0 30 31" fill="none" xmlns="http://www.w3.org/2000/svg">
<circle cx="15" cy="15.4976" r="15" fill="#B5EB5A"/>
<g clip-path="url(#clip0_62_303)">
<path d="M8.22065 14.9652C8.5994 14.9716 8.9417 15.054 9.27925 15.1586C9.9274 15.3614 10.547 15.6388 11.1587 15.9319C11.528 16.1094 11.894 16.2964 12.2554 16.4882C12.295 16.5104 12.3156 16.5104 12.3473 16.4723C13.2902 15.3503 14.268 14.2585 15.2711 13.1904C16.2932 12.1017 17.3376 11.0367 18.4485 10.0383C19.0554 9.49161 19.6798 8.9639 20.3612 8.51067C20.7004 8.28564 21.049 8.07962 21.4372 7.94809C21.5926 7.8958 21.751 7.8641 21.919 7.85776C22.1298 7.84984 22.3263 7.87995 22.5085 7.98929C22.7811 8.15094 22.8683 8.43777 22.7621 8.73253C22.6987 8.9116 22.5751 9.05423 22.4499 9.1921C22.171 9.49795 21.8651 9.77528 21.5672 10.0621C20.881 10.7198 20.2107 11.3949 19.58 12.1048C18.729 13.062 17.9429 14.0683 17.2171 15.1221C16.0143 16.8685 14.9874 18.7147 14.1 20.6401C13.7735 21.3485 13.4645 22.0648 13.1808 22.7922C13.1032 22.9903 12.9685 23.1028 12.7625 23.1313C12.6531 23.1456 12.4408 23.0727 12.3394 22.8905C12.1999 22.6401 12.0573 22.3928 11.9146 22.1456C11.3378 21.1504 10.7356 20.1726 10.0669 19.2377C9.28083 18.141 8.37913 17.1506 7.37758 16.2473C7.2508 16.1332 7.18108 15.9921 7.19851 15.8242C7.2413 15.4296 7.43146 15.0999 7.93699 14.9922C8.03841 14.97 8.143 14.9668 8.22224 14.9637L8.22065 14.9652Z" fill="#221F20"/>
</g>
<defs>
<clipPath id="clip0_62_303">
<rect width="15.6127" height="15.2783" fill="white" transform="translate(7.1936 7.85791)"/>
</clipPath>
</defs>
</svg>
