<svg width="12" height="14" viewBox="0 0 12 14" fill="none" xmlns="http://www.w3.org/2000/svg">
<g clip-path="url(#clip0_56_3102)">
<path d="M1.54146 0.105957C1.61735 0.105957 1.69363 0.105957 1.76953 0.105957C1.94229 0.189012 2.12422 0.258164 2.28593 0.356903C5.32216 2.21048 8.3561 4.06727 11.39 5.92405C12.0048 6.30047 11.9991 6.92677 11.3794 7.30604C9.76457 8.2945 8.14939 9.28259 6.53421 10.2707C5.08341 11.1583 3.63184 12.0451 2.18143 12.9338C1.99073 13.0507 1.79126 13.1309 1.55824 13.0992C1.09943 13.0364 0.84771 12.7327 0.84771 12.2383C0.84771 8.48912 0.84771 4.74026 0.84771 0.991041C0.84771 0.937928 0.846948 0.88446 0.851143 0.831348C0.876696 0.501625 1.06205 0.283116 1.38509 0.161208C1.43657 0.141603 1.48921 0.124493 1.54107 0.105957H1.54146Z" fill="white"/>
</g>
<defs>
<clipPath id="clip0_56_3102">
<rect width="11" height="13" fill="white" transform="translate(0.847656 0.105957)"/>
</clipPath>
</defs>
</svg>
