<svg width="274" height="157" viewBox="0 0 274 157" fill="none" xmlns="http://www.w3.org/2000/svg">
<line x1="1" y1="138.036" x2="273.115" y2="138.036" stroke="white" stroke-opacity="0.15"/>
<path d="M3.6 153.644C2.96 153.644 2.416 153.48 1.968 153.152C1.528 152.816 1.196 152.324 0.972 151.676C0.748 151.028 0.636 150.236 0.636 149.3C0.636 148.356 0.748 147.564 0.972 146.924C1.196 146.276 1.528 145.788 1.968 145.46C2.416 145.132 2.96 144.968 3.6 144.968C4.248 144.968 4.792 145.132 5.232 145.46C5.672 145.788 6.004 146.272 6.228 146.912C6.452 147.552 6.564 148.344 6.564 149.288C6.564 150.232 6.452 151.028 6.228 151.676C6.004 152.324 5.672 152.816 5.232 153.152C4.792 153.48 4.248 153.644 3.6 153.644ZM3.6 152.792C4.272 152.792 4.768 152.508 5.088 151.94C5.416 151.372 5.58 150.488 5.58 149.288C5.58 148.088 5.42 147.212 5.1 146.66C4.78 146.1 4.28 145.82 3.6 145.82C2.936 145.82 2.44 146.1 2.112 146.66C1.784 147.22 1.62 148.096 1.62 149.288C1.62 150.488 1.78 151.372 2.1 151.94C2.428 152.508 2.928 152.792 3.6 152.792Z" fill="white"/>
<path d="M0.266 11.1909L4.62 1.32092H5.6L9.954 11.1909H8.764L7.546 8.37692L8.106 8.67092H2.086L2.66 8.37692L1.456 11.1909H0.266ZM5.096 2.66492L2.842 7.97092L2.506 7.70492H7.686L7.378 7.97092L5.124 2.66492H5.096ZM13.4772 11.3169C13.1225 11.3169 12.7772 11.2796 12.4412 11.2049C12.1145 11.1396 11.8065 11.0463 11.5172 10.9249C11.2372 10.7943 10.9945 10.6403 10.7892 10.4629L11.1532 9.66492C11.3772 9.84225 11.6199 9.99158 11.8812 10.1129C12.1425 10.2249 12.4085 10.3089 12.6792 10.3649C12.9499 10.4209 13.2252 10.4489 13.5052 10.4489C14.0372 10.4489 14.4385 10.3509 14.7092 10.1549C14.9799 9.95892 15.1152 9.69292 15.1152 9.35692C15.1152 9.09558 15.0265 8.89025 14.8492 8.74092C14.6719 8.58225 14.3919 8.46092 14.0092 8.37692L12.7352 8.09692C12.1472 7.97558 11.7085 7.76558 11.4192 7.46692C11.1392 7.16825 10.9992 6.78092 10.9992 6.30492C10.9992 5.88492 11.1065 5.52558 11.3212 5.22692C11.5452 4.91892 11.8579 4.68092 12.2592 4.51292C12.6605 4.34492 13.1272 4.26092 13.6592 4.26092C13.9765 4.26092 14.2799 4.29358 14.5692 4.35892C14.8585 4.42425 15.1292 4.52225 15.3812 4.65292C15.6425 4.77425 15.8665 4.92825 16.0532 5.11492L15.6752 5.91292C15.4979 5.74492 15.2972 5.60492 15.0732 5.49292C14.8492 5.37158 14.6159 5.28292 14.3732 5.22692C14.1399 5.16158 13.9019 5.12892 13.6592 5.12892C13.1365 5.12892 12.7399 5.23158 12.4692 5.43692C12.1985 5.64225 12.0632 5.91292 12.0632 6.24892C12.0632 6.51025 12.1472 6.72492 12.3152 6.89292C12.4832 7.06092 12.7445 7.18225 13.0992 7.25692L14.3732 7.52292C14.9799 7.65358 15.4325 7.86358 15.7312 8.15292C16.0392 8.43292 16.1932 8.81558 16.1932 9.30092C16.1932 9.71158 16.0812 10.0709 15.8572 10.3789C15.6332 10.6776 15.3159 10.9109 14.9052 11.0789C14.5039 11.2376 14.0279 11.3169 13.4772 11.3169ZM20.2174 11.3169C19.8628 11.3169 19.5174 11.2796 19.1814 11.2049C18.8548 11.1396 18.5468 11.0463 18.2574 10.9249C17.9774 10.7943 17.7348 10.6403 17.5294 10.4629L17.8934 9.66492C18.1174 9.84225 18.3601 9.99158 18.6214 10.1129C18.8828 10.2249 19.1488 10.3089 19.4194 10.3649C19.6901 10.4209 19.9654 10.4489 20.2454 10.4489C20.7774 10.4489 21.1788 10.3509 21.4494 10.1549C21.7201 9.95892 21.8554 9.69292 21.8554 9.35692C21.8554 9.09558 21.7668 8.89025 21.5894 8.74092C21.4121 8.58225 21.1321 8.46092 20.7494 8.37692L19.4754 8.09692C18.8874 7.97558 18.4488 7.76558 18.1594 7.46692C17.8794 7.16825 17.7394 6.78092 17.7394 6.30492C17.7394 5.88492 17.8468 5.52558 18.0614 5.22692C18.2854 4.91892 18.5981 4.68092 18.9994 4.51292C19.4008 4.34492 19.8674 4.26092 20.3994 4.26092C20.7168 4.26092 21.0201 4.29358 21.3094 4.35892C21.5988 4.42425 21.8694 4.52225 22.1214 4.65292C22.3828 4.77425 22.6068 4.92825 22.7934 5.11492L22.4154 5.91292C22.2381 5.74492 22.0374 5.60492 21.8134 5.49292C21.5894 5.37158 21.3561 5.28292 21.1134 5.22692C20.8801 5.16158 20.6421 5.12892 20.3994 5.12892C19.8768 5.12892 19.4801 5.23158 19.2094 5.43692C18.9388 5.64225 18.8034 5.91292 18.8034 6.24892C18.8034 6.51025 18.8874 6.72492 19.0554 6.89292C19.2234 7.06092 19.4848 7.18225 19.8394 7.25692L21.1134 7.52292C21.7201 7.65358 22.1728 7.86358 22.4714 8.15292C22.7794 8.43292 22.9334 8.81558 22.9334 9.30092C22.9334 9.71158 22.8214 10.0709 22.5974 10.3789C22.3734 10.6776 22.0561 10.9109 21.6454 11.0789C21.2441 11.2376 20.7681 11.3169 20.2174 11.3169ZM27.7277 11.3169C27.009 11.3169 26.3883 11.1769 25.8657 10.8969C25.3523 10.6076 24.951 10.2016 24.6617 9.67892C24.3817 9.15625 24.2417 8.53092 24.2417 7.80292C24.2417 7.09358 24.3817 6.47758 24.6617 5.95492C24.9417 5.42292 25.3243 5.00758 25.8097 4.70892C26.3043 4.41025 26.8737 4.26092 27.5177 4.26092C28.1337 4.26092 28.661 4.39625 29.0997 4.66692C29.5383 4.93758 29.8743 5.32025 30.1077 5.81492C30.3503 6.30958 30.4717 6.90225 30.4717 7.59292V8.02692H25.1097V7.28492H29.7157L29.4917 7.46692C29.4917 6.72025 29.3237 6.14158 28.9877 5.73092C28.661 5.31092 28.1803 5.10092 27.5457 5.10092C27.0697 5.10092 26.6637 5.21292 26.3277 5.43692C26.001 5.65158 25.7537 5.95492 25.5857 6.34692C25.4177 6.72958 25.3337 7.17758 25.3337 7.69092V7.77492C25.3337 8.34425 25.4223 8.82492 25.5997 9.21692C25.7863 9.60892 26.0617 9.90758 26.4257 10.1129C26.7897 10.3089 27.2237 10.4069 27.7277 10.4069C28.129 10.4069 28.5163 10.3463 28.8897 10.2249C29.2723 10.0943 29.6317 9.88425 29.9677 9.59492L30.3597 10.3929C30.0517 10.6729 29.6597 10.8969 29.1837 11.0649C28.7077 11.2329 28.2223 11.3169 27.7277 11.3169ZM34.8428 11.3169C34.0402 11.3169 33.4382 11.1023 33.0368 10.6729C32.6355 10.2436 32.4348 9.63225 32.4348 8.83892V5.26892H31.1048V4.38692H32.4348V2.30092H33.5688V4.38692H35.7248V5.26892H33.5688V8.72692C33.5688 9.25892 33.6808 9.66492 33.9048 9.94492C34.1288 10.2156 34.4928 10.3509 34.9968 10.3509C35.1462 10.3509 35.2955 10.3323 35.4448 10.2949C35.5942 10.2576 35.7295 10.2203 35.8508 10.1829L36.0468 11.0509C35.9255 11.1163 35.7482 11.1769 35.5148 11.2329C35.2815 11.2889 35.0575 11.3169 34.8428 11.3169ZM39.3034 11.3169C38.9487 11.3169 38.6034 11.2796 38.2674 11.2049C37.9407 11.1396 37.6327 11.0463 37.3434 10.9249C37.0634 10.7943 36.8207 10.6403 36.6154 10.4629L36.9794 9.66492C37.2034 9.84225 37.446 9.99158 37.7074 10.1129C37.9687 10.2249 38.2347 10.3089 38.5054 10.3649C38.776 10.4209 39.0514 10.4489 39.3314 10.4489C39.8634 10.4489 40.2647 10.3509 40.5354 10.1549C40.806 9.95892 40.9414 9.69292 40.9414 9.35692C40.9414 9.09558 40.8527 8.89025 40.6754 8.74092C40.498 8.58225 40.218 8.46092 39.8354 8.37692L38.5614 8.09692C37.9734 7.97558 37.5347 7.76558 37.2454 7.46692C36.9654 7.16825 36.8254 6.78092 36.8254 6.30492C36.8254 5.88492 36.9327 5.52558 37.1474 5.22692C37.3714 4.91892 37.684 4.68092 38.0854 4.51292C38.4867 4.34492 38.9534 4.26092 39.4854 4.26092C39.8027 4.26092 40.106 4.29358 40.3954 4.35892C40.6847 4.42425 40.9554 4.52225 41.2074 4.65292C41.4687 4.77425 41.6927 4.92825 41.8794 5.11492L41.5014 5.91292C41.324 5.74492 41.1234 5.60492 40.8994 5.49292C40.6754 5.37158 40.442 5.28292 40.1994 5.22692C39.966 5.16158 39.728 5.12892 39.4854 5.12892C38.9627 5.12892 38.566 5.23158 38.2954 5.43692C38.0247 5.64225 37.8894 5.91292 37.8894 6.24892C37.8894 6.51025 37.9734 6.72492 38.1414 6.89292C38.3094 7.06092 38.5707 7.18225 38.9254 7.25692L40.1994 7.52292C40.806 7.65358 41.2587 7.86358 41.5574 8.15292C41.8654 8.43292 42.0194 8.81558 42.0194 9.30092C42.0194 9.71158 41.9074 10.0709 41.6834 10.3789C41.4594 10.6776 41.142 10.9109 40.7314 11.0789C40.33 11.2376 39.854 11.3169 39.3034 11.3169Z" fill="#B5EB5A"/>
<path d="M1.218 34.0581V24.1881H4.55C5.62333 24.1881 6.52867 24.3794 7.266 24.7621C8.01267 25.1354 8.57733 25.6908 8.96 26.4281C9.352 27.1561 9.548 28.0521 9.548 29.1161C9.548 30.1801 9.352 31.0808 8.96 31.8181C8.57733 32.5554 8.01267 33.1154 7.266 33.4981C6.52867 33.8714 5.62333 34.0581 4.55 34.0581H1.218ZM2.366 33.0781H4.466C5.76333 33.0781 6.72933 32.7468 7.364 32.0841C8.008 31.4214 8.33 30.4321 8.33 29.1161C8.33 27.8001 8.008 26.8154 7.364 26.1621C6.72 25.4994 5.754 25.1681 4.466 25.1681H2.366V33.0781ZM14.5206 34.1841C13.802 34.1841 13.1813 34.0441 12.6586 33.7641C12.1453 33.4748 11.744 33.0688 11.4546 32.5461C11.1746 32.0234 11.0346 31.3981 11.0346 30.6701C11.0346 29.9608 11.1746 29.3448 11.4546 28.8221C11.7346 28.2901 12.1173 27.8748 12.6026 27.5761C13.0973 27.2774 13.6666 27.1281 14.3106 27.1281C14.9266 27.1281 15.454 27.2634 15.8926 27.5341C16.3313 27.8048 16.6673 28.1874 16.9006 28.6821C17.1433 29.1768 17.2646 29.7694 17.2646 30.4601V30.8941H11.9026V30.1521H16.5086L16.2846 30.3341C16.2846 29.5874 16.1166 29.0088 15.7806 28.5981C15.454 28.1781 14.9733 27.9681 14.3386 27.9681C13.8626 27.9681 13.4566 28.0801 13.1206 28.3041C12.794 28.5188 12.5466 28.8221 12.3786 29.2141C12.2106 29.5968 12.1266 30.0448 12.1266 30.5581V30.6421C12.1266 31.2114 12.2153 31.6921 12.3926 32.0841C12.5793 32.4761 12.8546 32.7748 13.2186 32.9801C13.5826 33.1761 14.0166 33.2741 14.5206 33.2741C14.922 33.2741 15.3093 33.2134 15.6826 33.0921C16.0653 32.9614 16.4246 32.7514 16.7606 32.4621L17.1526 33.2601C16.8446 33.5401 16.4526 33.7641 15.9766 33.9321C15.5006 34.1001 15.0153 34.1841 14.5206 34.1841ZM22.3498 34.1841C21.7338 34.1841 21.2018 34.0254 20.7538 33.7081C20.3151 33.3908 20.0211 32.9661 19.8718 32.4341H20.0118V34.0581H18.9058V24.1881H20.0398V28.8361H19.8718C20.0305 28.3134 20.3291 27.8981 20.7678 27.5901C21.2065 27.2821 21.7338 27.1281 22.3498 27.1281C22.9658 27.1281 23.4978 27.2728 23.9458 27.5621C24.3938 27.8421 24.7391 28.2481 24.9818 28.7801C25.2338 29.3028 25.3598 29.9281 25.3598 30.6561C25.3598 31.3748 25.2338 32.0001 24.9818 32.5321C24.7391 33.0548 24.3891 33.4608 23.9318 33.7501C23.4838 34.0394 22.9565 34.1841 22.3498 34.1841ZM22.1118 33.2741C22.7558 33.2741 23.2645 33.0501 23.6378 32.6021C24.0205 32.1448 24.2118 31.4961 24.2118 30.6561C24.2118 29.8068 24.0205 29.1581 23.6378 28.7101C23.2645 28.2621 22.7558 28.0381 22.1118 28.0381C21.4771 28.0381 20.9685 28.2621 20.5858 28.7101C20.2031 29.1581 20.0118 29.8068 20.0118 30.6561C20.0118 31.4961 20.2031 32.1448 20.5858 32.6021C20.9685 33.0501 21.4771 33.2741 22.1118 33.2741ZM29.7295 34.1841C28.9269 34.1841 28.3249 33.9694 27.9235 33.5401C27.5222 33.1108 27.3215 32.4994 27.3215 31.7061V28.1361H25.9915V27.2541H27.3215V25.1681H28.4555V27.2541H30.6115V28.1361H28.4555V31.5941C28.4555 32.1261 28.5675 32.5321 28.7915 32.8121C29.0155 33.0828 29.3795 33.2181 29.8835 33.2181C30.0329 33.2181 30.1822 33.1994 30.3315 33.1621C30.4809 33.1248 30.6162 33.0874 30.7375 33.0501L30.9335 33.9181C30.8122 33.9834 30.6349 34.0441 30.4015 34.1001C30.1682 34.1561 29.9442 34.1841 29.7295 34.1841ZM34.1901 34.1841C33.8354 34.1841 33.4901 34.1468 33.1541 34.0721C32.8274 34.0068 32.5194 33.9134 32.2301 33.7921C31.9501 33.6614 31.7074 33.5074 31.5021 33.3301L31.8661 32.5321C32.0901 32.7094 32.3327 32.8588 32.5941 32.9801C32.8554 33.0921 33.1214 33.1761 33.3921 33.2321C33.6627 33.2881 33.9381 33.3161 34.2181 33.3161C34.7501 33.3161 35.1514 33.2181 35.4221 33.0221C35.6927 32.8261 35.8281 32.5601 35.8281 32.2241C35.8281 31.9628 35.7394 31.7574 35.5621 31.6081C35.3847 31.4494 35.1047 31.3281 34.7221 31.2441L33.4481 30.9641C32.8601 30.8428 32.4214 30.6328 32.1321 30.3341C31.8521 30.0354 31.7121 29.6481 31.7121 29.1721C31.7121 28.7521 31.8194 28.3928 32.0341 28.0941C32.2581 27.7861 32.5707 27.5481 32.9721 27.3801C33.3734 27.2121 33.8401 27.1281 34.3721 27.1281C34.6894 27.1281 34.9927 27.1608 35.2821 27.2261C35.5714 27.2914 35.8421 27.3894 36.0941 27.5201C36.3554 27.6414 36.5794 27.7954 36.7661 27.9821L36.3881 28.7801C36.2107 28.6121 36.0101 28.4721 35.7861 28.3601C35.5621 28.2388 35.3287 28.1501 35.0861 28.0941C34.8527 28.0288 34.6147 27.9961 34.3721 27.9961C33.8494 27.9961 33.4527 28.0988 33.1821 28.3041C32.9114 28.5094 32.7761 28.7801 32.7761 29.1161C32.7761 29.3774 32.8601 29.5921 33.0281 29.7601C33.1961 29.9281 33.4574 30.0494 33.8121 30.1241L35.0861 30.3901C35.6927 30.5208 36.1454 30.7308 36.4441 31.0201C36.7521 31.3001 36.9061 31.6828 36.9061 32.1681C36.9061 32.5788 36.7941 32.9381 36.5701 33.2461C36.3461 33.5448 36.0287 33.7781 35.6181 33.9461C35.2167 34.1048 34.7407 34.1841 34.1901 34.1841Z" fill="#C6C6C6"/>
<path d="M246.665 153.536V152.696H248.597V145.928H249.113L247.073 147.224L246.653 146.492L248.873 145.076H249.581V152.696H251.393V153.536H246.665ZM255.973 153.644C255.333 153.644 254.789 153.48 254.341 153.152C253.901 152.816 253.569 152.324 253.345 151.676C253.121 151.028 253.009 150.236 253.009 149.3C253.009 148.356 253.121 147.564 253.345 146.924C253.569 146.276 253.901 145.788 254.341 145.46C254.789 145.132 255.333 144.968 255.973 144.968C256.621 144.968 257.165 145.132 257.605 145.46C258.045 145.788 258.377 146.272 258.601 146.912C258.825 147.552 258.937 148.344 258.937 149.288C258.937 150.232 258.825 151.028 258.601 151.676C258.377 152.324 258.045 152.816 257.605 153.152C257.165 153.48 256.621 153.644 255.973 153.644ZM255.973 152.792C256.645 152.792 257.141 152.508 257.461 151.94C257.789 151.372 257.953 150.488 257.953 149.288C257.953 148.088 257.793 147.212 257.473 146.66C257.153 146.1 256.653 145.82 255.973 145.82C255.309 145.82 254.813 146.1 254.485 146.66C254.157 147.22 253.993 148.096 253.993 149.288C253.993 150.488 254.153 151.372 254.473 151.94C254.801 152.508 255.301 152.792 255.973 152.792ZM264.234 155.696L265.326 153.236V153.656L262.77 147.704H263.826L265.914 152.816H265.59L267.702 147.704H268.722L265.254 155.696H264.234ZM269.726 153.536V147.704H270.674V149.084H270.554C270.69 148.612 270.926 148.256 271.262 148.016C271.598 147.768 272.042 147.624 272.594 147.584L272.942 147.548L273.014 148.388L272.402 148.46C271.858 148.508 271.438 148.684 271.142 148.988C270.854 149.284 270.71 149.692 270.71 150.212V153.536H269.726Z" fill="white"/>
<path d="M101.657 153.536V145.928H98.5851V145.076H105.725V145.928H102.653V153.536H101.657ZM108.178 153.644C107.61 153.644 107.118 153.52 106.702 153.272C106.286 153.024 105.962 152.676 105.73 152.228C105.506 151.772 105.394 151.236 105.394 150.62C105.394 150.004 105.506 149.472 105.73 149.024C105.962 148.568 106.286 148.216 106.702 147.968C107.118 147.72 107.61 147.596 108.178 147.596C108.746 147.596 109.238 147.72 109.654 147.968C110.07 148.216 110.39 148.568 110.614 149.024C110.846 149.472 110.962 150.004 110.962 150.62C110.962 151.236 110.846 151.772 110.614 152.228C110.39 152.676 110.07 153.024 109.654 153.272C109.238 153.52 108.746 153.644 108.178 153.644ZM108.178 152.864C108.73 152.864 109.166 152.672 109.486 152.288C109.814 151.896 109.978 151.336 109.978 150.608C109.978 149.888 109.814 149.336 109.486 148.952C109.166 148.568 108.73 148.376 108.178 148.376C107.634 148.376 107.198 148.568 106.87 148.952C106.542 149.336 106.378 149.888 106.378 150.608C106.378 151.336 106.542 151.896 106.87 152.288C107.198 152.672 107.634 152.864 108.178 152.864ZM114.642 153.644C114.122 153.644 113.666 153.52 113.274 153.272C112.89 153.024 112.59 152.676 112.374 152.228C112.166 151.772 112.062 151.236 112.062 150.62C112.062 149.996 112.166 149.46 112.374 149.012C112.59 148.556 112.89 148.208 113.274 147.968C113.666 147.72 114.122 147.596 114.642 147.596C115.17 147.596 115.622 147.728 115.998 147.992C116.374 148.256 116.626 148.612 116.754 149.06H116.622V145.076H117.594V153.536H116.646V152.144H116.766C116.638 152.6 116.382 152.964 115.998 153.236C115.622 153.508 115.17 153.644 114.642 153.644ZM114.846 152.864C115.398 152.864 115.834 152.672 116.154 152.288C116.482 151.896 116.646 151.34 116.646 150.62C116.646 149.892 116.482 149.336 116.154 148.952C115.834 148.568 115.398 148.376 114.846 148.376C114.302 148.376 113.866 148.568 113.538 148.952C113.21 149.336 113.046 149.892 113.046 150.62C113.046 151.34 113.21 151.896 113.538 152.288C113.866 152.672 114.302 152.864 114.846 152.864ZM121.254 153.644C120.854 153.644 120.494 153.568 120.174 153.416C119.862 153.256 119.614 153.04 119.43 152.768C119.246 152.496 119.154 152.192 119.154 151.856C119.154 151.424 119.262 151.084 119.478 150.836C119.702 150.588 120.066 150.412 120.57 150.308C121.082 150.204 121.778 150.152 122.658 150.152H123.198V150.788H122.67C122.182 150.788 121.774 150.804 121.446 150.836C121.118 150.868 120.858 150.924 120.666 151.004C120.474 151.084 120.338 151.188 120.258 151.316C120.178 151.444 120.138 151.604 120.138 151.796C120.138 152.124 120.25 152.392 120.474 152.6C120.706 152.808 121.018 152.912 121.41 152.912C121.73 152.912 122.01 152.836 122.25 152.684C122.498 152.532 122.69 152.324 122.826 152.06C122.97 151.796 123.042 151.492 123.042 151.148V149.78C123.042 149.284 122.942 148.928 122.742 148.712C122.542 148.488 122.214 148.376 121.758 148.376C121.406 148.376 121.066 148.428 120.738 148.532C120.41 148.628 120.074 148.788 119.73 149.012L119.394 148.304C119.602 148.16 119.838 148.036 120.102 147.932C120.366 147.82 120.642 147.736 120.93 147.68C121.218 147.624 121.494 147.596 121.758 147.596C122.262 147.596 122.678 147.68 123.006 147.848C123.334 148.008 123.578 148.256 123.738 148.592C123.898 148.92 123.978 149.344 123.978 149.864V153.536H123.066V152.18H123.174C123.11 152.484 122.986 152.744 122.802 152.96C122.626 153.176 122.406 153.344 122.142 153.464C121.878 153.584 121.582 153.644 121.254 153.644ZM126.395 155.696L127.487 153.236V153.656L124.931 147.704H125.987L128.075 152.816H127.751L129.863 147.704H130.883L127.415 155.696H126.395Z" fill="white"/>
<line x1="115.246" y1="138.886" x2="115.246" y2="0.19043" stroke="white" stroke-dasharray="2 4"/>
<path d="M114.589 89.9395C127.565 83.7931 146.639 79.4932 157.907 74.0297C169.176 68.5663 200.249 77.103 208.444 71.6396C216.64 66.1761 267.518 19.3952 267.86 9.49268" stroke="#B5EB5A" stroke-width="3" stroke-linejoin="round" stroke-dasharray="6 6"/>
<path d="M267.86 136.177C257.729 136.012 233.508 134.245 217.664 128.501C197.859 121.321 199.225 114.637 186.249 110.18C173.273 105.723 125.81 95.0771 114.541 91.1157" stroke="#C6C6C6" stroke-width="3" stroke-linejoin="round" stroke-dasharray="6 6"/>
<path d="M4.58887 136.177C14.719 135.949 38.9404 133.514 54.7844 125.592C74.5895 115.689 73.2236 106.47 86.1993 100.323L115.994 89.3276" stroke="#B5EB5A" stroke-width="3"/>
<path d="M114.541 91.1166C103.273 87.1552 72.1994 93.345 64.0042 89.3836C55.809 85.4222 4.93051 51.5028 4.58905 44.3228" stroke="#C6C6C6" stroke-width="3"/>
</svg>
