<svg width="15" height="18" viewBox="0 0 15 18" fill="none" xmlns="http://www.w3.org/2000/svg">
<path d="M7.01846 9.84313C4.96678 9.84313 2.91462 9.84217 0.862946 9.84313C0.294311 9.84313 0.0217109 9.56909 0.0207544 8.98946C0.0197979 8.43517 0.299094 8.15779 0.860555 8.15779C3.66499 8.15779 6.46943 8.15779 9.27387 8.15779C10.5953 8.15779 11.9167 8.1597 13.238 8.15492C13.5551 8.15396 13.8339 8.23335 13.9841 8.52795C14.1443 8.84168 14.1405 9.17788 13.976 9.49066C13.8411 9.74652 13.5967 9.84313 13.315 9.8436C11.216 9.84456 9.117 9.84408 7.01798 9.8436L7.01846 9.84313Z" fill="#FF8A3D"/>
<path d="M7.05341 12.1401C9.1247 12.1401 11.1955 12.1435 13.2668 12.1368C13.591 12.1358 13.8622 12.2214 13.9971 12.5246C14.142 12.8499 14.1482 13.1923 13.9473 13.5046C13.7905 13.7485 13.5427 13.8135 13.2625 13.8135C10.2754 13.8106 7.28823 13.8121 4.30111 13.8116C3.15427 13.8116 2.00696 13.8078 0.860122 13.814C0.54161 13.8154 0.262792 13.737 0.115492 13.4414C-0.0408945 13.1277 -0.0404162 12.7886 0.128883 12.4787C0.2714 12.2176 0.521523 12.1358 0.816601 12.1373C2.083 12.144 3.34987 12.1401 4.61627 12.1401C5.42881 12.1401 6.24135 12.1401 7.05389 12.1401H7.05341Z" fill="#FF8A3D"/>
<path d="M7.02721 5.86125C4.96406 5.86125 2.90138 5.85838 0.838225 5.86364C0.515887 5.8646 0.243765 5.77995 0.10603 5.47722C-0.0379223 5.16014 -0.04127 4.82537 0.139507 4.51594C0.259069 4.31077 0.459454 4.2113 0.695229 4.19025C0.77414 4.18356 0.854486 4.18691 0.933874 4.18691C5.02001 4.18691 9.10615 4.19265 13.1918 4.18165C13.9465 4.17973 14.1842 4.66754 14.0565 5.3237C13.9895 5.6666 13.715 5.85742 13.3348 5.85838C12.0923 5.8622 10.8498 5.86029 9.60735 5.86077C8.74699 5.86077 7.8871 5.86077 7.02673 5.86077L7.02721 5.86125Z" fill="#FF8A3D"/>
<path d="M7.03486 2.49582C6.45284 2.49582 5.87129 2.49152 5.28926 2.49821C5.07453 2.50061 4.91193 2.43317 4.83158 2.22896C4.75076 2.02427 4.82632 1.85976 4.98366 1.71915C5.55995 1.20408 6.13289 0.685661 6.70965 0.172024C6.96408 -0.0541861 7.13434 -0.0570555 7.38063 0.161981C7.96362 0.680879 8.54325 1.2036 9.1248 1.72489C9.27353 1.85832 9.34957 2.01853 9.27592 2.21509C9.20036 2.41739 9.04732 2.50108 8.82829 2.49869C8.23048 2.492 7.63267 2.4963 7.03486 2.4963V2.49582Z" fill="#FF8A3D"/>
<path d="M7.06784 15.5046C7.64939 15.5046 8.23141 15.5089 8.81296 15.5022C9.02769 15.4998 9.18934 15.5682 9.27064 15.7714C9.3529 15.9776 9.27303 16.1416 9.1176 16.2813C8.54275 16.7973 7.96981 17.3162 7.39305 17.8303C7.13623 18.0594 6.96693 18.0565 6.70294 17.8217C6.13191 17.3133 5.56519 16.7997 4.99464 16.2913C4.8306 16.1454 4.74595 15.9781 4.83395 15.7628C4.91765 15.5577 5.08694 15.5003 5.29785 15.5022C5.88753 15.5079 6.47721 15.5041 7.06688 15.5041L7.06784 15.5046Z" fill="#FF8A3D"/>
</svg>
